<svg xmlns="http://www.w3.org/2000/svg" xmlns:xlink="http://www.w3.org/1999/xlink" width="278" height="236" viewBox="0 0 278 236"><svg xmlns="http://www.w3.org/2000/svg" id="dd-logo" width="105" height="28" y="78" viewBox="-2 -2 105 28"><path fill="#7E868C" fill-rule="evenodd" d="M22.646 6.554c-2.264 0-4.055 1.672-4.055 4.555 0 3.384 2.21 4.59 4.105 4.59 1.542 0 2.748-.74 3.618-2.31l-1.858-.71c-.453.64-.973 1.124-1.777 1.124-.84 0-1.85-.295-2.08-1.952h5.782c.3-3.314-1.557-5.297-3.735-5.297m-2 3.642c.251-1.122.98-1.814 1.882-1.814.99 0 1.643.638 1.777 1.814h-3.66zm15.136-3.384h2.01v8.63h-2.01v-8.63zm-4.055 3.4c.922.293 2.797.604 2.797 2.606 0 1.588-1.39 2.883-3.334 2.883-1.542 0-3.065-.743-3.852-2.279l1.523-1.087c.603.914 1.29 1.553 2.313 1.553.52 0 1.308-.259 1.308-.931 0-.674-.839-.743-2.196-1.088-1.324-.345-2.646-.932-2.646-2.606 0-1.623 1.406-2.71 3.333-2.71 1.743 0 2.647.794 3.366 1.674l-1.305 1.346c-.703-.845-1.34-1.243-2.128-1.243-.839 0-1.258.38-1.258.864 0 .603 1.157.725 2.08 1.018zM15.408 7.587V1.98h2.009v13.46h-1.59l-.153-1.23c-.57.917-1.461 1.489-2.68 1.489-2.464 0-4.438-2.035-4.438-4.573 0-2.538 1.907-4.573 4.438-4.573 1.074 0 1.865.387 2.414 1.033zm-2.347 6.216c-1.491 0-2.464-1.122-2.464-2.659 0-1.537.973-2.693 2.464-2.693 1.492 0 2.464 1.156 2.464 2.693 0 1.537-.972 2.66-2.464 2.66zm86.037 0c.268 0 .57 0 1.072-.051v1.655c-.587.224-1.29.293-1.843.293-1.725 0-2.495-1.207-2.495-3.175v-3.92h-1.474V6.814h1.474V1.98h2.026v4.833h1.725v1.793h-1.725V12.3c0 .984.435 1.502 1.24 1.502zm-9.265-7.25c2.464 0 4.44 1.915 4.44 4.574 0 2.538-1.825 4.573-4.44 4.573-2.464 0-4.44-2.035-4.44-4.573 0-2.539 1.976-4.573 4.44-4.573zm0 7.25c-1.408 0-2.43-1.122-2.43-2.659 0-1.537 1.022-2.694 2.43-2.694 1.408 0 2.43 1.157 2.43 2.694s-1.022 2.66-2.43 2.66zM35.783 1.98h2.008v2.675h-2.009V1.98zM71.72 6.554c2.179 0 4.037 1.983 3.735 5.297h-5.781c.23 1.657 1.239 1.952 2.08 1.952.805 0 1.324-.484 1.776-1.123l1.858.708c-.87 1.57-2.075 2.312-3.618 2.312-1.893 0-4.104-1.207-4.104-4.59 0-2.884 1.791-4.556 4.054-4.556zm-2 3.642c.252-1.122.98-1.814 1.883-1.814.989 0 1.642.638 1.777 1.814h-3.66zm-5.237-2.61V1.98h2.008v13.461h-1.59l-.153-1.23c-.569.917-1.461 1.49-2.68 1.49-2.463 0-4.437-2.036-4.437-4.574s1.907-4.573 4.438-4.573c1.074 0 1.864.387 2.414 1.033zm-2.347 6.217c-1.492 0-2.464-1.122-2.464-2.659 0-1.536.972-2.693 2.464-2.693s2.465 1.157 2.465 2.693c0 1.537-.973 2.66-2.465 2.66zm18.749-7.25c2.464 0 3.668 2.035 3.668 4.574 0 2.538-1.239 4.573-3.668 4.573-.986 0-1.697-.327-2.197-.88v3.986h-2.025V6.813h1.607l.136 1.091c.517-.835 1.324-1.35 2.479-1.35zm-.268 7.25c-1.492 0-2.045-1.157-2.045-2.694 0-1.536.553-2.659 2.045-2.659 1.307 0 1.894 1.123 1.894 2.66 0 1.536-.62 2.693-1.894 2.693zm-26.841-7.25c1.608 0 2.68 1.139 2.68 2.915v5.973h-2.01V9.865c0-.707-.435-1.363-1.274-1.363-.837 0-1.677.76-1.776 1.882v5.057h-2.01V6.813h1.657l.251 1.155h.035c.519-.828 1.424-1.414 2.447-1.414zm-7.73 1.337l.19-1.076h1.641v7.749c0 1.864-1.272 4.418-4.372 4.418-2.078 0-3.569-1-4.037-2.848h1.992c.52.778 1.291 1.003 1.978 1.003 1.438 0 2.459-1.093 2.57-2.808-.571.848-1.438 1.373-2.603 1.373-2.464 0-4.44-2.035-4.44-4.573 0-2.538 1.909-4.573 4.44-4.573 1.231 0 2.09.509 2.641 1.335zm-2.574 5.914c-1.492 0-2.464-1.122-2.464-2.659 0-1.536.972-2.693 2.464-2.693 1.491 0 2.464 1.157 2.464 2.693 0 1.537-.973 2.66-2.464 2.66zM3.067.83l2.445 4.675v6.107H.505V5.505L3 .83h.067zM2.43 3.849h1.14l.938 1.656H1.51l.92-1.656zM1.51 6.54v4.037h1.038V6.54H1.51zm2.042 0h.955v4.037h-.955V6.54zm-.217 5.124h.017c1.24 1.397 2.344 3.07 2.344 5.538 0 2.432-.987 4.243-2.746 5.968h-.033C1.157 21.445.17 19.634.17 17.202c0-2.468 1.105-4.141 2.345-5.538h.016c-.62 1.052-.954 2.035-.954 3.26 0 .535.016 1.449.452 2.38l.05-.016a2.67 2.67 0 01-.05-.483c0-.863.301-1.691.888-2.346h.033a3.49 3.49 0 01.887 2.346c0 .137-.016.31-.05.483l.05.017c.436-.932.452-1.846.452-2.38 0-1.226-.334-2.21-.954-3.261z" opacity=".7"/></svg><svg xmlns="http://www.w3.org/2000/svg" id="icon-attachment-gray" width="26" height="26" y="184" viewBox="-2 -2 26 26"><path fill="#7E868C" d="M10.048 16.426l3.487-3.669c1.328-1.396 1.328-3.65 0-5.045a3.326 3.326 0 00-4.866 0L3.496 13.26c-1.6 1.685-1.6 4.409.003 6.095a4.01 4.01 0 005.868 0l8.536-9.16c1.86-1.956 1.86-5.124-.003-7.083-1.875-1.974-4.93-1.974-6.806 0l-6.825 7.18.725.69L11.82 3.8c1.482-1.56 3.875-1.56 5.356 0 1.496 1.573 1.496 4.135 0 5.709l-8.536 9.16c-1.22 1.283-3.192 1.283-4.415-.004-1.236-1.3-1.236-3.419 0-4.72l5.173-5.547a2.325 2.325 0 013.413.003c.96 1.01.96 2.657 0 3.667l-3.487 3.669.725.689z"/></svg><svg xmlns="http://www.w3.org/2000/svg" id="icon-bracket-black" width="26" height="26" x="26" y="184" viewBox="-2 -2 26 26"><path fill="#1D2228" d="M15.546 11.072c.064-.065.12-.125.171-.178a2559.304 2559.304 0 00-7.659-7.46l.696-.717a2560.08 2560.08 0 016.002 5.831c.667.652 1.168 1.143 1.502 1.474.168.166.295.293.38.38.06.06.06.06.103.106.025-.003.025-.003.165.378-.133.374-.133.374-.158.372-.042.047-.042.047-.102.11a285.633 285.633 0 01-1.882 1.943 2748.844 2748.844 0 01-6.001 6.116l-.713-.702c2.666-2.71 4.666-4.748 5.999-6.113a325.35 325.35 0 001.497-1.54z"/></svg><svg xmlns="http://www.w3.org/2000/svg" id="icon-bracket-bold-green" width="26" height="26" x="52" y="184" viewBox="-2 -2 26 26"><path fill="#007934" d="M15.388 12.339l1.324-1.36c-.322-.318-.758-.745-1.308-1.282-1.332-1.3-3.331-3.243-5.997-5.827l1.392-1.436c2.667 2.586 4.668 4.53 6.003 5.832a325.3 325.3 0 011.505 1.477 42.522 42.522 0 01.496.5c.025-.036.025-.036.3.72-.261.737-.261.737-.285.703l-.11.12-.385.403c-.335.348-.837.863-1.505 1.547a2749.256 2749.256 0 01-6.002 6.117L9.39 18.451c2.666-2.71 4.665-4.748 5.998-6.112z"/></svg><svg xmlns="http://www.w3.org/2000/svg" id="icon-bracket-green" width="26" height="26" x="78" y="184" viewBox="-2 -2 26 26"><path fill="#007934" d="M15.546 11.072c.064-.065.12-.125.171-.178a2559.304 2559.304 0 00-7.659-7.46l.696-.717a2560.08 2560.08 0 016.002 5.831c.667.652 1.168 1.143 1.502 1.474.168.166.295.293.38.38.06.06.06.06.103.106.025-.003.025-.003.165.378-.133.374-.133.374-.158.372-.042.047-.042.047-.102.11a285.633 285.633 0 01-1.882 1.943 2748.844 2748.844 0 01-6.001 6.116l-.713-.702c2.666-2.71 4.666-4.748 5.999-6.113a325.35 325.35 0 001.497-1.54z"/></svg><svg xmlns="http://www.w3.org/2000/svg" id="icon-bracket-white" width="26" height="26" x="104" y="184" viewBox="-2 -2 26 26"><path fill="#FFF" d="M15.546 11.072c.064-.065.12-.125.171-.178a2559.304 2559.304 0 00-7.659-7.46l.696-.717a2560.08 2560.08 0 016.002 5.831c.667.652 1.168 1.143 1.502 1.474.168.166.295.293.38.38.06.06.06.06.103.106.025-.003.025-.003.165.378-.133.374-.133.374-.158.372-.042.047-.042.047-.102.11a285.633 285.633 0 01-1.882 1.943 2748.844 2748.844 0 01-6.001 6.116l-.713-.702c2.666-2.71 4.666-4.748 5.999-6.113a325.35 325.35 0 001.497-1.54z"/></svg><svg xmlns="http://www.w3.org/2000/svg" id="icon-calendar-green" width="26" height="26" x="130" y="184" viewBox="-2 -2 26 26"><path fill="#007934" d="M4 10.5v4h4v-4H4zm5-5v4h4v-4H9zm9 5h-4v4h4v-4zm0 5h-4v4h4v-4zm-5 4v-4H9v4h4zm-5 0v-4H4v4h4zm1-5h4v-4H9v4zm-5-5h4v-4H4v4zm10 0h4v-4h-4v4zm-7-6h2v-1H7v1zm6 0h2v-1h-2v1zm-10-2h16v19H3v-19z"/></svg><svg xmlns="http://www.w3.org/2000/svg" id="icon-checkmark-green" width="26" height="26" x="156" y="184" viewBox="-2 -2 26 26"><path fill="#007934" d="M9.461 15.21L5.877 10.4l-.801.598 4.44 5.96 7.408-11.37-.837-.546z"/></svg><svg xmlns="http://www.w3.org/2000/svg" id="icon-email-gray" width="26" height="26" x="182" y="184" viewBox="-2 -2 26 26"><path fill="#7E868C" d="M11.073 10.81l7.028-5 .58.815-7.64 5.435-6.873-5.45.621-.784 6.284 4.984zM21 3.609V18.39H1V3.61h20zm-1 1H2V17.39h18V4.61z"/></svg><svg xmlns="http://www.w3.org/2000/svg" id="icon-email-white" width="26" height="26" x="228" viewBox="-2 -2 26 26"><path fill="#FFF" d="M11.073 10.81l7.028-5 .58.815-7.64 5.435-6.873-5.45.621-.784 6.284 4.984zM21 3.609V18.39H1V3.61h20zm-1 1H2V17.39h18V4.61z"/></svg><svg xmlns="http://www.w3.org/2000/svg" id="icon-enlarge-black" width="34" height="34" x="164" y="43" viewBox="-2 -2 34 34"><path fill="#1D2228" d="M28.682 3.041a374.42 374.42 0 00-2.31-.035c-2.052-.027-5.123-.06-9.212-.1l-.5-.004.01-1 .5.005c4.09.04 7.162.072 9.214.1a305.738 305.738 0 012.908.049c.094.003.094.003.161.007.02-.02.02-.02.378.15.17.37.17.37.15.388l.003.159c.002.13.002.322.001.577-.002.506-.008 1.26-.019 2.263-.021 2.004-.06 5.004-.117 8.998l-.007.5-1-.014.007-.5c.057-3.993.096-6.992.117-8.995a348.612 348.612 0 00.02-2.541l-.304-.007zM1.309 26.96c.515.01 1.285.022 2.31.035 2.051.027 5.122.06 9.211.1l.5.004-.01 1-.5-.005c-4.09-.04-7.161-.072-9.214-.1a305.289 305.289 0 01-2.907-.049c-.094-.003-.094-.003-.162-.007-.02.02-.02.02-.377-.15-.171-.37-.171-.37-.15-.388-.003-.067-.003-.067-.004-.159a349.39 349.39 0 01.018-2.84c.022-2.004.06-5.004.118-8.998l.007-.5 1 .014-.007.5c-.057 3.993-.096 6.992-.118 8.995a348.61 348.61 0 00-.02 2.541l.305.007z"/></svg><svg xmlns="http://www.w3.org/2000/svg" id="icon-enlarge-green" width="34" height="34" x="78" y="106" viewBox="-2 -2 34 34"><path fill="#007934" d="M28.682 3.041a374.42 374.42 0 00-2.31-.035c-2.052-.027-5.123-.06-9.212-.1l-.5-.004.01-1 .5.005c4.09.04 7.162.072 9.214.1a305.738 305.738 0 012.908.049c.094.003.094.003.161.007.02-.02.02-.02.378.15.17.37.17.37.15.388l.003.159c.002.13.002.322.001.577-.002.506-.008 1.26-.019 2.263-.021 2.004-.06 5.004-.117 8.998l-.007.5-1-.014.007-.5c.057-3.993.096-6.992.117-8.995a348.612 348.612 0 00.02-2.541l-.304-.007zM1.309 26.96c.515.01 1.285.022 2.31.035 2.051.027 5.122.06 9.211.1l.5.004-.01 1-.5-.005c-4.09-.04-7.161-.072-9.214-.1a305.289 305.289 0 01-2.907-.049c-.094-.003-.094-.003-.162-.007-.02.02-.02.02-.377-.15-.171-.37-.171-.37-.15-.388-.003-.067-.003-.067-.004-.159a349.39 349.39 0 01.018-2.84c.022-2.004.06-5.004.118-8.998l.007-.5 1 .014-.007.5c-.057 3.993-.096 6.992-.118 8.995a348.61 348.61 0 00-.02 2.541l.305.007z"/></svg><svg xmlns="http://www.w3.org/2000/svg" id="icon-exit-white" width="26" height="26" x="228" y="26" viewBox="-2 -2 26 26"><path fill="#FFF" d="M10.293 11.014L-.01.71.697.004 11 10.307 21.303.004l.707.707-10.303 10.303L22.01 21.317l-.707.707L11 11.72.697 22.024l-.707-.707 10.303-10.303z"/></svg><svg xmlns="http://www.w3.org/2000/svg" id="icon-external-gray" width="26" height="26" x="228" y="52" viewBox="-2 -2 26 26"><path fill="#7E868C" d="M19 3.623l-9.166 8.249a.5.5 0 11-.668-.744L18.197 3H15.5a.5.5 0 110-1h4a.5.5 0 01.5.5v4a.5.5 0 11-1 0V3.623zM17 19v-8.103a.5.5 0 111 0V19.5a.5.5 0 01-.5.5h-15a.5.5 0 01-.5-.5v-15a.5.5 0 01.5-.5h8.82a.5.5 0 110 1H3v14h14z"/></svg><svg xmlns="http://www.w3.org/2000/svg" id="icon-filter-green" width="26" height="26" x="228" y="78" viewBox="-2 -2 26 26"><path fill="#007934" d="M11.5 6.425a2.511 2.511 0 00-1 0V3.5h1v2.925zm0 4.9v6.982h-1v-6.982a2.511 2.511 0 001 0zm6-1.9a2.511 2.511 0 00-1 0V3.5h1v5.925zm0 4.9v3.982h-1v-3.982a2.511 2.511 0 001 0zm-12-.9a2.511 2.511 0 00-1 0V3.5h1v9.925zm-.5 3.95a1.5 1.5 0 110-3 1.5 1.5 0 010 3zm6-7a1.5 1.5 0 110-3 1.5 1.5 0 010 3zm6 3a1.5 1.5 0 110-3 1.5 1.5 0 010 3z"/></svg><svg xmlns="http://www.w3.org/2000/svg" id="icon-mail-black" width="30" height="21" x="105" y="78" viewBox="-2 -2 30 21"><g fill="none" fill-rule="evenodd"><path fill="#1D2228" d="M0 0h26v17H0z"/><path fill="#FFF" fill-rule="nonzero" d="M3.297 2.473l-.594.804 9.738 7.209 10.836-7.194-.554-.834-10.25 6.806z"/></g></svg><svg xmlns="http://www.w3.org/2000/svg" id="icon-mail-white" width="30" height="21" x="135" y="78" viewBox="-2 -2 30 21"><g fill="none" fill-rule="evenodd"><path fill="#FFF" d="M0 0h26v17H0z"/><path fill="#1D2228" fill-rule="nonzero" d="M3.297 2.473l-.594.804 9.738 7.209 10.836-7.194-.554-.834-10.25 6.806z"/></g></svg><svg xmlns="http://www.w3.org/2000/svg" id="icon-menu-white" width="34" height="34" x="112" y="106" viewBox="-2 -2 34 34"><path fill="#FFF" d="M0 16v-1h30v1H0zm0 9v-1h30v1H0zM0 6V5h30v1H0z"/></svg><svg xmlns="http://www.w3.org/2000/svg" id="icon-minus-white" width="26" height="26" x="228" y="104" viewBox="-2 -2 26 26"><path fill="#FFF" d="M21.914 11.5H.086v-1h21.828z"/></svg><svg xmlns="http://www.w3.org/2000/svg" id="icon-phone-gray" width="26" height="26" x="228" y="130" viewBox="-2 -2 26 26"><path fill="#7E868C" d="M4.338 7.666l-.06-.12c-.336-.67-.499-.992-.696-1.374a3.042 3.042 0 01-.161-.407c-.142-.431-.204-.867-.145-1.256.055-.367.215-.671.504-.914l.087-.073c.172-.139.369-.286.587-.439a18.849 18.849 0 011.377-.877l.086-.063a.933.933 0 01.16-.11c.288-.164.55-.17.82.065.059.05.117.112.176.187L8.091 3.57l.779.983.29.366a.853.853 0 01-.157.659c-.121.16-.299.38-.517.646l-.038.046a78.5 78.5 0 01-.756.904l-.062.095c-.03.06-.068.153-.105.272-.09.292-.128.595-.077.896.013.077.033.152.058.225.8 2.323 2.962 5.057 5.018 6.337.125.078.262.134.407.171a1.95 1.95 0 00.97-.013l.107-.045a74.677 74.677 0 01.998-.574l.057-.031c.3-.17.549-.306.726-.398a.732.732 0 01.625-.027 57071.103 57071.103 0 002.084 2.631c.329.417.305.738.07 1.051a.99.99 0 01-.171.183l-.077.073a19.68 19.68 0 01-1.06 1.164 10.704 10.704 0 01-.674.63c-.444.373-.97.408-1.572.184a3.263 3.263 0 01-.822-.454l-.071-.057c-3.228-2.564-4.735-3.916-6.218-5.79a9.04 9.04 0 01-.175-.224c-1.134-1.48-1.896-2.832-3.39-5.807zm2.667 6.362l.183.235c1.532 1.933 3.065 3.313 6.303 5.887.497.711 2.556 1.307 3.681.36a7.69 7.69 0 00.29-.255c.144-.132.292-.276.445-.43a20.571 20.571 0 001.083-1.185c.09-.075.2-.185.308-.33.465-.622.522-1.393-.086-2.162l-1.018-1.286-1.131-1.428-.123-.108a1.389 1.389 0 00-.246-.112 1.626 1.626 0 00-1.324.086c-.189.098-.445.239-.754.413l-.057.032a81.423 81.423 0 00-.95.545 1.077 1.077 0 01-.454-.003.52.52 0 01-.149-.061c-1.878-1.169-3.906-3.735-4.639-5.86a.527.527 0 01-.02-.083 1.048 1.048 0 01.048-.471 1.41 1.41 0 01.034-.1 85.13 85.13 0 00.722-.863l.04-.047c.223-.273.406-.5.536-.67a1.732 1.732 0 00.324-1.403 1.277 1.277 0 00-.038-.155l-.076-.14-.353-.447-.778-.982-1.019-1.286a2.287 2.287 0 00-.292-.309C6.89.886 6.22.904 5.628 1.24a1.9 1.9 0 00-.29.199 19.738 19.738 0 00-1.408.898 11.42 11.42 0 00-.637.478l-.1.082a2.33 2.33 0 00-.818 1.476c-.083.55-.002 1.121.18 1.677.08.24.16.426.217.538.195.38.357.7.691 1.366l.06.12c1.52 3.026 2.302 4.413 3.481 5.953l.362-.277-.361.278z"/></svg><svg xmlns="http://www.w3.org/2000/svg" id="icon-phone-white" width="26" height="26" x="228" y="156" viewBox="-2 -2 26 26"><path fill="#FFF" d="M4.338 7.666l-.06-.12c-.336-.67-.499-.992-.696-1.374a3.042 3.042 0 01-.161-.407c-.142-.431-.204-.867-.145-1.256.055-.367.215-.671.504-.914l.087-.073c.172-.139.369-.286.587-.439a18.849 18.849 0 011.377-.877l.086-.063a.933.933 0 01.16-.11c.288-.164.55-.17.82.065.059.05.117.112.176.187L8.091 3.57l.779.983.29.366a.853.853 0 01-.157.659c-.121.16-.299.38-.517.646l-.038.046a78.5 78.5 0 01-.756.904l-.062.095c-.03.06-.068.153-.105.272-.09.292-.128.595-.077.896.013.077.033.152.058.225.8 2.323 2.962 5.057 5.018 6.337.125.078.262.134.407.171a1.95 1.95 0 00.97-.013l.107-.045a74.677 74.677 0 01.998-.574l.057-.031c.3-.17.549-.306.726-.398a.732.732 0 01.625-.027 57071.103 57071.103 0 002.084 2.631c.329.417.305.738.07 1.051a.99.99 0 01-.171.183l-.077.073a19.68 19.68 0 01-1.06 1.164 10.704 10.704 0 01-.674.63c-.444.373-.97.408-1.572.184a3.263 3.263 0 01-.822-.454l-.071-.057c-3.228-2.564-4.735-3.916-6.218-5.79a9.04 9.04 0 01-.175-.224c-1.134-1.48-1.896-2.832-3.39-5.807zm2.667 6.362l.183.235c1.532 1.933 3.065 3.313 6.303 5.887.497.711 2.556 1.307 3.681.36a7.69 7.69 0 00.29-.255c.144-.132.292-.276.445-.43a20.571 20.571 0 001.083-1.185c.09-.075.2-.185.308-.33.465-.622.522-1.393-.086-2.162l-1.018-1.286-1.131-1.428-.123-.108a1.389 1.389 0 00-.246-.112 1.626 1.626 0 00-1.324.086c-.189.098-.445.239-.754.413l-.057.032a81.423 81.423 0 00-.95.545 1.077 1.077 0 01-.454-.003.52.52 0 01-.149-.061c-1.878-1.169-3.906-3.735-4.639-5.86a.527.527 0 01-.02-.083 1.048 1.048 0 01.048-.471 1.41 1.41 0 01.034-.1 85.13 85.13 0 00.722-.863l.04-.047c.223-.273.406-.5.536-.67a1.732 1.732 0 00.324-1.403 1.277 1.277 0 00-.038-.155l-.076-.14-.353-.447-.778-.982-1.019-1.286a2.287 2.287 0 00-.292-.309C6.89.886 6.22.904 5.628 1.24a1.9 1.9 0 00-.29.199 19.738 19.738 0 00-1.408.898 11.42 11.42 0 00-.637.478l-.1.082a2.33 2.33 0 00-.818 1.476c-.083.55-.002 1.121.18 1.677.08.24.16.426.217.538.195.38.357.7.691 1.366l.06.12c1.52 3.026 2.302 4.413 3.481 5.953l.362-.277-.361.278z"/></svg><svg xmlns="http://www.w3.org/2000/svg" id="icon-place-black" width="26" height="26" x="228" y="182" viewBox="-2 -2 26 26"><path d="M11 .93c4.147 0 7.5 3.498 7.5 7.812l-.007.391c-.14 3.992-2.378 7.756-6.696 11.3L11 21.07l-.312-.25-.49-.39C5.742 16.77 3.5 12.871 3.5 8.732 3.5 4.428 6.853.93 11 .93zm.167 18.726c4.109-3.372 6.197-6.886 6.326-10.549l.007-.374c0-3.762-2.915-6.803-6.5-6.803S4.5 4.97 4.5 8.733c0 3.806 2.089 7.44 6.328 10.92l.172.137.167-.134zM11 11.93a3.5 3.5 0 110-7 3.5 3.5 0 010 7zm0-1a2.5 2.5 0 100-5 2.5 2.5 0 000 5z"/></svg><svg xmlns="http://www.w3.org/2000/svg" id="icon-place-gray" width="26" height="26" y="210" viewBox="-2 -2 26 26"><path fill="#7E868C" d="M11 .93c4.147 0 7.5 3.498 7.5 7.812l-.007.391c-.14 3.992-2.378 7.756-6.696 11.3L11 21.07l-.312-.25-.49-.39C5.742 16.77 3.5 12.871 3.5 8.732 3.5 4.428 6.853.93 11 .93zm.167 18.726c4.109-3.372 6.197-6.886 6.326-10.549l.007-.374c0-3.762-2.915-6.803-6.5-6.803S4.5 4.97 4.5 8.733c0 3.806 2.089 7.44 6.328 10.92l.172.137.167-.134zM11 11.93a3.5 3.5 0 110-7 3.5 3.5 0 010 7zm0-1a2.5 2.5 0 100-5 2.5 2.5 0 000 5z"/></svg><svg xmlns="http://www.w3.org/2000/svg" id="icon-play-white" width="44" height="44" y="106" viewBox="-2 -2 44 44"><path fill="#FFF" d="M14.33 35.543L29.92 20 14.33 4.457l.702-.704L31.33 20 15.032 36.247z"/></svg><svg xmlns="http://www.w3.org/2000/svg" id="icon-plus-black" width="26" height="26" x="26" y="210" viewBox="-2 -2 26 26"><path fill="#1D2228" d="M10.5.086h1v21.828h-1V.086zM21.914 11.5H.086v-1h21.828v1z"/></svg><svg xmlns="http://www.w3.org/2000/svg" id="icon-plus-gray" width="26" height="26" x="52" y="210" viewBox="-2 -2 26 26"><path fill="#7E868C" d="M10.5.086h1v21.828h-1V.086zM21.914 11.5H.086v-1h21.828v1z"/></svg><svg xmlns="http://www.w3.org/2000/svg" id="icon-plus-green" width="26" height="26" x="78" y="210" viewBox="-2 -2 26 26"><path fill="#007934" d="M10.5.086h1v21.828h-1V.086zM21.914 11.5H.086v-1h21.828v1z"/></svg><svg xmlns="http://www.w3.org/2000/svg" id="icon-plus-white" width="26" height="26" x="104" y="210" viewBox="-2 -2 26 26"><path fill="#FFF" d="M10.5.086h1v21.828h-1V.086zM21.914 11.5H.086v-1h21.828v1z"/></svg><svg xmlns="http://www.w3.org/2000/svg" id="icon-search-black" width="26" height="26" x="130" y="210" viewBox="-2 -2 26 26"><path fill="#1D2228" d="M14.116 15.176a8 8 0 111.433-1.396l5.658 5.492-1.393 1.435-5.698-5.53zm-4.823.617a7 7 0 100-14 7 7 0 000 14z"/></svg><svg xmlns="http://www.w3.org/2000/svg" id="icon-star-gray-big" width="34" height="34" x="146" y="106" viewBox="-2 -2 34 34"><path fill="#979797" d="M15 24.392l-9.27 4.874L7.5 18.943 0 11.633l10.365-1.507L15 .734l4.635 9.392L30 11.632l-7.5 7.311 1.77 10.323L15 24.392zm0-1.469l7.544 3.966-1.441-8.4 6.103-5.949-8.434-1.225L15 3.672l-3.772 7.643-8.434 1.225 6.103 5.949-1.44 8.4L15 22.923z"/></svg><svg xmlns="http://www.w3.org/2000/svg" id="icon-star-green" width="26" height="26" x="156" y="210" viewBox="-2 -2 26 26"><path fill="#007934" d="M4.202 21.462l1.298-7.57L0 8.53l7.6-1.104L11 .538l3.4 6.888L22 8.53l-5.5 5.362 1.298 7.57L11 17.888l-6.798 3.574zM11 16.713l5.418 2.849-1.035-6.033 4.384-4.273-6.058-.88L11 2.886l-2.71 5.49-6.057.88 4.384 4.273-1.035 6.033L11 16.713z"/></svg><svg xmlns="http://www.w3.org/2000/svg" id="icon-star-green-big" width="34" height="34" y="150" viewBox="-2 -2 34 34"><path fill="#007934" d="M15 24.392l-9.27 4.874L7.5 18.943 0 11.633l10.365-1.507L15 .734l4.635 9.392L30 11.632l-7.5 7.311 1.77 10.323z"/></svg><svg xmlns="http://www.w3.org/2000/svg" id="icon-star-green-fill" width="26" height="26" x="182" y="210" viewBox="-2 -2 26 26"><path fill="#007934" d="M4.202 21.462l1.298-7.57L0 8.53l7.6-1.104L11 .538l3.4 6.888L22 8.53l-5.5 5.362 1.298 7.57L11 17.888l-6.798 3.574z"/></svg><svg xmlns="http://www.w3.org/2000/svg" id="icon-star-white" width="26" height="26" x="208" y="210" viewBox="-2 -2 26 26"><path fill="#FFF" d="M4.202 21.462l1.298-7.57L0 8.53l7.6-1.104L11 .538l3.4 6.888L22 8.53l-5.5 5.362 1.298 7.57L11 17.888l-6.798 3.574zM11 16.713l5.418 2.849-1.035-6.033 4.384-4.273-6.058-.88L11 2.886l-2.71 5.49-6.057.88 4.384 4.273-1.035 6.033L11 16.713z"/></svg><svg xmlns="http://www.w3.org/2000/svg" id="logo" width="206" height="43" viewBox="-2 -2 206 43"><g fill="none" fill-rule="evenodd"><path fill="#09783D" d="M19.222 39C8.578 39 0 30.42 0 19.77 0 9.225 8.578.643 19.222.643c10.54 0 19.221 8.582 19.221 19.127 0 10.649-8.68 19.23-19.221 19.23"/><path fill="#FFF" d="M22.201 24.248l-1.794-3.226h3.743l-2.826-5.038-1.883-3.426h3.247l-2.143-3.829L18.5 5l-2.142 3.729-2.143 3.829h3.345l-1.883 3.426-2.826 5.038h3.743L14.8 24.248 11 31h15z"/><path fill="#2B2E37" d="M88.086 12.377h5.975l-1.114 2.978h-5.975l1.114-2.978zm104.34 7.835c-.489-.09-.936-.181-1.426-.181-.937 0-1.828.181-2.631.593-.803.367-1.515.963-2.14 1.79-.624.824-1.071 1.603-1.338 2.38-.223.596-.267 1.147-.223 1.606.044.458.223.87.58 1.144.311.277.759.413 1.248.413.536 0 1.116-.184 1.65-.503a4.948 4.948 0 001.561-1.375c.49-.596.936-1.33 1.337-2.2.357-.824.847-2.063 1.383-3.667zm1.472 11.824h-5.573l.712-1.925c-.49.367-.935.688-1.292.917-.357.274-.803.503-1.337.687a10.11 10.11 0 01-1.651.55c-.534.138-1.114.183-1.65.183-.98 0-1.828-.183-2.54-.55-.67-.367-1.25-.87-1.606-1.511-.358-.643-.536-1.422-.536-2.338 0-.917.178-1.832.491-2.84.446-1.375 1.16-2.705 2.096-4.034.981-1.328 2.007-2.338 3.12-3.115 1.072-.734 2.23-1.284 3.39-1.606 1.16-.274 2.364-.458 3.612-.458.847 0 1.783.093 2.81.23.49-1.192 1.114-2.932 1.826-5.086h6.065c-1.292 3.024-2.763 6.736-4.415 11.09-1.65 4.4-2.852 7.652-3.522 9.806zm-26.262 0l1.336-3.3 4.325-11.455 2.186-6.141h6.109l-1.873 4.673-4.37 11.595-1.604 4.628h-6.11zm-13.422-11.18c.533-1.009.89-1.697 1.025-2.064.179-.413.49-1.008.847-1.833 3.077-.641 5.663-.963 7.714-.963 1.159 0 2.184.139 3.077.413.891.276 1.515.688 1.873 1.33.313.595.313 1.465-.045 2.566-.178.595-.668 1.878-1.517 3.848a173.652 173.652 0 00-2.898 7.883h-5.886c.492-1.1 1.427-3.436 2.721-6.965-.401.183-.758.32-.981.412-.267.09-.668.229-1.248.367-.625.183-1.07.32-1.427.412l-.937.412c-.267.184-.49.367-.625.55-.178.184-.267.413-.357.642-.132.321-.088.641.09.87.223.229.58.367 1.205.367.178 0 .4 0 .668-.046a8.871 8.871 0 001.07-.276c-.534.78-1.249 1.926-2.14 3.439-.937.136-1.74.228-2.542.228-1.205 0-2.184-.183-2.898-.55-.713-.321-1.114-.915-1.337-1.694a4.19 4.19 0 01.132-2.338c.135-.505.402-.963.715-1.42.31-.46.712-.918 1.204-1.375.49-.413 1.025-.78 1.604-1.101.535-.32 1.294-.596 2.185-.87.893-.274 2.007-.55 3.345-.825.534-.092 1.07-.183 1.516-.321.49-.09.847-.184 1.025-.274.223-.093.402-.184.58-.322.133-.138.267-.229.357-.367.089-.136.133-.274.179-.412.133-.367.088-.687-.179-.87-.224-.229-.67-.322-1.294-.322-1.694 0-3.968.505-6.821 1.468zm-28.805 11.18c.178-7.194.222-12.42.088-15.627.981 0 1.963.045 2.944.045.935 0 1.828-.045 2.63-.045l-.49 8.02-.18 1.604 2.052-3.162 4.236-6.462c.982 0 1.963.045 2.943.045 1.071 0 2.006-.045 2.81-.045l-.758 8.569-.134 1.055.49-.779c.134-.183.445-.643.893-1.375l4.993-7.47c.981 0 1.872.045 2.72.045.714 0 1.649-.045 2.809-.045l-9.81 13.199-1.738 2.428h-5.663l.357-4.399c.088-.872.267-2.476.578-4.859-2.942 4.4-4.993 7.47-6.286 9.258h-5.484zm-24.882 0c1.07-2.292 2.095-4.858 3.165-7.654 1.116-2.84 2.051-5.498 2.9-7.973 1.204 0 2.23.045 3.076.045 1.026 0 1.961-.045 2.898-.045l-.802 2.063c.445-.367.802-.643 1.114-.872.313-.229.67-.457 1.115-.64a4.518 4.518 0 011.293-.506c.445-.136.893-.274 1.383-.32a8.888 8.888 0 011.56-.138c.713 0 1.382.093 2.006.23.624.183 1.116.412 1.473.688.355.274.624.64.803 1.099.176.412.222.917.132 1.374a6.527 6.527 0 01-.357 1.559c-.133.412-.446 1.237-.935 2.52l-2.051 5.546a139.654 139.654 0 00-1.07 3.024h-6.065c.401-.917.937-2.292 1.65-4.125.668-1.832 1.16-3.116 1.382-3.894.402-1.146.446-1.925.179-2.383-.313-.46-.759-.688-1.427-.688-.58 0-1.16.183-1.828.55-.624.413-1.204.963-1.74 1.695-.49.779-1.114 1.97-1.784 3.667-.668 1.694-1.293 3.436-1.917 5.178h-6.153zm-3.21 0h-5.664l.67-2.109c-.492.505-.937.825-1.248 1.056-.313.229-.67.412-1.026.594-.313.183-.714.321-1.116.46-.401.137-.847.228-1.336.319-.492.047-.982.092-1.473.092-.803 0-1.516-.092-2.14-.274a3.069 3.069 0 01-1.561-.962c-.355-.46-.58-.963-.58-1.559 0-.55.134-1.237.357-1.97.09-.184.179-.458.357-.87l1.383-3.484c.49-1.282.981-2.657 1.56-4.216.357-.962.67-1.88.937-2.704 1.248 0 2.273.045 3.165.045.848 0 1.828-.045 2.9-.045l-2.365 5.821c-.401.915-.624 1.511-.712 1.833-.135.32-.179.548-.225.64-.355 1.054-.4 1.788-.088 2.2.313.367.758.55 1.338.55.223 0 .49-.045.757-.092.223-.09.492-.183.759-.32.222-.138.49-.276.668-.457.269-.184.492-.46.714-.734.267-.322.49-.689.713-1.055a24.1 24.1 0 00.893-2.062c.267-.596.668-1.65 1.204-3.117l1.158-3.207c1.294 0 2.32.045 3.167.045.935 0 1.828-.045 2.808-.045a175.953 175.953 0 00-2.987 7.378c-.893 2.337-1.872 5.087-2.988 8.25zm-29.831 0l2.675-6.782 1.427-3.941c.268-.689.491-1.42.758-2.154.223-.734.536-1.65.847-2.75 1.204 0 2.186.045 2.854.045.847 0 1.784-.045 2.854-.045l-.624 1.742c.535-.458.98-.825 1.292-1.008.313-.23.67-.413 1.072-.596a4.59 4.59 0 011.114-.412 4.594 4.594 0 011.113-.139c.358 0 .759.046 1.16.139-.357 1.146-.624 2.061-.847 2.795l-.668 2.337c-.491-.138-.981-.228-1.427-.228-.624 0-1.16.09-1.65.274a5.464 5.464 0 00-1.426.779 5.972 5.972 0 00-1.204 1.375c-.402.55-.803 1.42-1.295 2.566a95.195 95.195 0 00-1.427 4.032c-.176.55-.355 1.192-.578 1.971h-6.02zm-7.67-12.189c1.382.045 2.676.045 3.88.045 2.14 0 3.79 0 4.994-.045-.624 1.42-1.383 3.391-2.364 5.957-.98 2.565-1.694 4.49-2.14 5.82-1.204.183-2.23.367-2.988.458-.803.092-1.738.183-2.808.228a34.035 34.035 0 01-2.854.138c-1.338 0-2.63-.092-3.879-.321-1.25-.229-2.276-.596-3.123-1.099-.89-.505-1.515-1.191-1.916-2.063-.402-.825-.624-1.878-.58-3.024 0-1.192.223-2.383.624-3.666.668-2.063 1.828-3.986 3.39-5.774 1.605-1.787 3.522-3.162 5.751-4.215 2.186-1.055 4.817-1.559 7.803-1.559 2.186 0 4.504.275 6.956.825a67.144 67.144 0 00-1.427 4.95c-.668-.23-1.158-.413-1.56-.55-.4-.092-.892-.23-1.428-.322-.578-.137-1.114-.184-1.604-.275-.535-.045-.981-.045-1.427-.045-1.071 0-2.185.136-3.255.458a9.223 9.223 0 00-2.988 1.513c-.935.64-1.694 1.465-2.362 2.383-.67.915-1.16 1.923-1.473 2.931-.355 1.055-.49 2.016-.355 2.843.132.824.578 1.42 1.292 1.878.713.412 1.606.64 2.675.64.891 0 1.917-.135 3.033-.412L60.93 24.2c-.624 0-.981-.046-1.116-.046l-1.603.046.756-1.878c.046-.229.179-.505.313-.917.135-.365.313-.87.534-1.557zm38.971-7.47h5.977l-1.116 2.978h-5.975l1.114-2.978z"/></g></svg><svg xmlns="http://www.w3.org/2000/svg" id="logo-small" width="164" height="35" y="43" viewBox="-2 -2 164 35"><g fill="none" fill-rule="evenodd"><path fill="#09783D" d="M15.279 30.49A15.254 15.254 0 010 15.202C0 6.821 6.82 0 15.28 0c8.379 0 15.278 6.821 15.278 15.203 0 8.465-6.9 15.286-15.278 15.286"/><path fill="#FFF" d="M17.647 18.763l-1.426-2.564h2.975l-2.246-4.005-1.497-2.723h2.581l-1.703-3.044-1.627-2.964-1.703 2.964-1.703 3.044h2.66l-1.498 2.723-2.246 4.005h2.975l-1.426 2.564-3.02 5.367h11.924z"/><path fill="#2B2E37" d="M69.453 9.452h4.75l-.886 2.46h-4.75l.886-2.46zm82.938 6.473c-.39-.075-.745-.15-1.135-.15-.745 0-1.453.15-2.09.49-.639.304-1.205.796-1.702 1.479-.496.68-.851 1.324-1.063 1.967a3.072 3.072 0 00-.178 1.326c.036.378.178.719.461.945.248.228.603.34.993.34.426 0 .887-.15 1.311-.415a3.984 3.984 0 001.241-1.136c.39-.492.743-1.098 1.062-1.817a39.3 39.3 0 001.1-3.029zm1.169 9.768h-4.43l.566-1.59c-.389.302-.743.568-1.027.757a3.668 3.668 0 01-1.063.567c-.425.19-.851.34-1.312.455a5.14 5.14 0 01-1.312.151c-.778 0-1.453-.151-2.02-.454-.53-.303-.991-.719-1.275-1.249-.284-.53-.426-1.175-.426-1.93 0-.758.142-1.515.39-2.347.355-1.136.922-2.234 1.666-3.333.78-1.097 1.595-1.93 2.48-2.573a8.99 8.99 0 012.695-1.326c.922-.227 1.879-.378 2.871-.378.673 0 1.417.076 2.233.189.39-.985.886-2.422 1.452-4.202h4.821c-1.027 2.499-2.197 5.566-3.51 9.162-1.31 3.634-2.266 6.321-2.8 8.1zm-20.875 0l1.062-2.727 3.438-9.463 1.737-5.073h4.856l-1.488 3.861-3.475 9.579-1.274 3.823h-4.856zm-10.67-9.237c.425-.833.71-1.401.816-1.704.142-.34.39-.833.673-1.514 2.446-.53 4.502-.795 6.132-.795.92 0 1.736.114 2.446.34.708.228 1.204.569 1.488 1.098.249.493.249 1.211-.035 2.12-.142.493-.531 1.552-1.206 3.18a147.104 147.104 0 00-2.303 6.512h-4.679c.39-.91 1.134-2.84 2.163-5.754-.32.151-.603.264-.78.34-.212.075-.531.19-.992.303-.497.152-.85.264-1.135.34-.248.115-.496.227-.745.341-.212.152-.389.304-.496.455-.142.152-.212.34-.284.53-.105.265-.07.53.072.718.177.19.461.304.957.304.142 0 .32 0 .531-.038.213-.037.497-.114.85-.228-.424.644-.992 1.59-1.7 2.84-.745.113-1.383.19-2.02.19-.958 0-1.737-.152-2.304-.455-.567-.266-.886-.757-1.063-1.4a3.591 3.591 0 01.105-1.931c.107-.417.32-.795.568-1.174.248-.38.567-.757.957-1.135.39-.341.816-.644 1.275-.91.426-.264 1.029-.492 1.737-.718.71-.227 1.595-.455 2.66-.682.424-.076.85-.151 1.204-.265.39-.075.673-.152.815-.227.177-.076.32-.151.461-.265.105-.114.212-.19.284-.303.07-.113.105-.227.142-.34.105-.304.07-.568-.142-.72-.179-.189-.533-.265-1.029-.265-1.346 0-3.154.417-5.422 1.212zM99.12 25.693c.142-5.943.177-10.26.07-12.91.78 0 1.56.038 2.34.038.743 0 1.453-.038 2.091-.038l-.39 6.626-.142 1.325 1.63-2.612 3.367-5.339c.78 0 1.56.038 2.34.038.85 0 1.594-.038 2.232-.038l-.601 7.08-.107.87.39-.643c.106-.151.353-.531.71-1.136l3.968-6.17c.78 0 1.488.037 2.162.037.567 0 1.31-.038 2.233-.038l-7.798 10.904-1.381 2.006h-4.501l.283-3.634c.07-.72.212-2.045.46-4.014-2.339 3.634-3.97 6.171-4.997 7.648H99.12zm-19.778 0c.85-1.894 1.665-4.014 2.516-6.323a161.55 161.55 0 002.305-6.587c.957 0 1.772.038 2.445.038.815 0 1.559-.038 2.304-.038l-.638 1.705c.354-.303.638-.532.885-.72a4.13 4.13 0 01.887-.53c.319-.19.673-.34 1.027-.417.355-.113.71-.227 1.1-.264a6.806 6.806 0 011.24-.114 7.14 7.14 0 011.594.189c.496.151.887.34 1.171.568.282.227.496.53.638.908.14.34.177.758.105 1.136a5.61 5.61 0 01-.283 1.287c-.106.34-.355 1.022-.744 2.083l-1.63 4.58c-.32.908-.603 1.741-.85 2.499h-4.821c.319-.758.745-1.894 1.311-3.408.531-1.514.922-2.574 1.1-3.217.318-.946.353-1.59.141-1.968-.249-.38-.603-.569-1.134-.569-.461 0-.922.152-1.453.455-.497.34-.958.795-1.383 1.4-.39.643-.886 1.628-1.419 3.029-.53 1.4-1.027 2.839-1.523 4.278h-4.891zm-2.552 0h-4.502l.533-1.742c-.391.417-.745.68-.993.871-.248.19-.532.341-.815.491-.248.152-.568.266-.887.38a7.283 7.283 0 01-1.062.264c-.39.039-.78.076-1.17.076a5.875 5.875 0 01-1.701-.226 2.428 2.428 0 01-1.241-.795c-.283-.38-.461-.796-.461-1.288 0-.454.106-1.022.283-1.628.072-.151.142-.378.284-.718l1.1-2.878c.389-1.06.78-2.195 1.239-3.483a57.25 57.25 0 00.745-2.234c.992 0 1.807.038 2.516.038.674 0 1.453-.038 2.305-.038l-1.88 4.809c-.318.756-.496 1.248-.566 1.514-.107.264-.142.453-.178.53-.283.87-.318 1.476-.07 1.817.248.303.602.454 1.063.454.177 0 .39-.037.602-.076.177-.075.39-.152.603-.264.177-.114.39-.229.531-.379.214-.151.39-.38.568-.606.212-.265.39-.568.566-.871.214-.454.461-1.022.71-1.703.212-.493.531-1.363.957-2.575l.92-2.65c1.03 0 1.845.038 2.518.038.743 0 1.453-.038 2.232-.038a148.705 148.705 0 00-2.374 6.095c-.71 1.93-1.488 4.202-2.375 6.815zm-23.712 0l2.127-5.603 1.134-3.256c.214-.568.39-1.173.603-1.78.177-.605.426-1.362.673-2.27.957 0 1.737.037 2.268.037.674 0 1.419-.038 2.269-.038l-.496 1.439c.426-.378.78-.681 1.027-.833a4.82 4.82 0 01.852-.492c.282-.151.566-.265.885-.34.284-.077.603-.114.886-.114.284 0 .603.037.922.114-.284.946-.496 1.703-.674 2.309l-.53 1.93c-.392-.113-.78-.188-1.135-.188-.496 0-.922.075-1.311.226-.391.152-.745.34-1.134.644a4.88 4.88 0 00-.958 1.136c-.319.454-.638 1.173-1.028 2.12a80.715 80.715 0 00-1.135 3.33c-.14.455-.282.985-.46 1.629H53.08zm-6.097-10.07c1.1.038 2.128.038 3.085.038 1.701 0 3.012 0 3.97-.038-.497 1.174-1.1 2.802-1.88 4.922-.778 2.118-1.346 3.709-1.7 4.807-.957.152-1.773.303-2.376.378-.638.077-1.381.152-2.231.19a26.04 26.04 0 01-2.269.113 16.45 16.45 0 01-3.083-.265c-.994-.19-1.81-.492-2.482-.908a3.631 3.631 0 01-1.524-1.705c-.319-.68-.496-1.55-.46-2.498 0-.984.176-1.968.495-3.028.531-1.704 1.453-3.293 2.694-4.77 1.277-1.476 2.8-2.612 4.572-3.482 1.738-.872 3.829-1.287 6.203-1.287 1.737 0 3.58.226 5.529.681a57.15 57.15 0 00-1.134 4.089c-.532-.19-.921-.34-1.24-.455-.32-.075-.71-.189-1.136-.266-.46-.112-.885-.151-1.274-.226-.426-.038-.78-.038-1.135-.038-.851 0-1.737.113-2.587.379a7.23 7.23 0 00-2.375 1.25c-.744.529-1.347 1.21-1.878 1.968a8.4 8.4 0 00-1.17 2.422c-.283.871-.39 1.665-.283 2.348.105.68.46 1.173 1.027 1.551.567.34 1.276.53 2.127.53.708 0 1.523-.113 2.41-.34l.992-2.765c-.496 0-.78-.037-.887-.037l-1.274.037.601-1.551c.037-.189.142-.417.249-.758.107-.301.249-.718.424-1.286zm30.978-6.17h4.75l-.886 2.46h-4.75l.886-2.46z"/></g></svg><svg xmlns="http://www.w3.org/2000/svg" id="map-marker-green" width="34" height="44" x="44" y="106" viewBox="-2 -2 34 44"><g fill="none"><path fill="#FFF" d="M15 0c8.287 0 15 6.876 15 15.362l-.014.787c-.285 7.954-4.842 15.48-13.674 22.597L15 39.776l-.309-.243-1.008-.791C4.563 31.392 0 23.6 0 15.352 0 6.877 6.713 0 15 0z"/><path fill="#007934" d="M15.69 37.963c8.618-6.945 13.023-14.22 13.296-21.841l.014-.77C29 7.424 22.73 1 15 1S1 7.423 1 15.353c0 7.91 4.406 15.435 13.306 22.606l.694.545.69-.54z"/><path fill="#FFF" d="M15 7.86c-4.004 0-7.25 3.295-7.25 7.36s3.246 7.36 7.25 7.36 7.25-3.295 7.25-7.36S19.004 7.86 15 7.86zm0 1.84c3.003 0 5.438 2.471 5.438 5.52 0 3.049-2.435 5.52-5.438 5.52-3.003 0-5.438-2.471-5.438-5.52 0-3.049 2.435-5.52 5.438-5.52z"/></g></svg><svg xmlns="http://www.w3.org/2000/svg" id="map-marker-small-gray" width="22" height="28" x="180" y="106" viewBox="-2 -2 22 28"><g fill="none"><path fill="#FFF" d="M9 .934c4.695 0 8.5 3.839 8.5 8.581l-.008.432c-.16 4.399-2.71 8.547-7.633 12.454L9 23.066l-.306-.237-.558-.431C3.054 18.363.5 14.068.5 9.506.5 4.773 4.305.934 9 .934z"/><path fill="#1D2228" d="M9.243 21.746c4.707-3.736 7.102-7.632 7.25-11.694l.007-.414c0-4.183-3.359-7.572-7.5-7.572s-7.5 3.39-7.5 7.572c0 4.22 2.395 8.248 7.252 12.104l.248.192.243-.188z"/><path fill="#FFF" d="M9 5.5a4 4 0 100 8 4 4 0 000-8zm0 1a3 3 0 110 6 3 3 0 010-6z"/></g></svg><svg xmlns="http://www.w3.org/2000/svg" id="map-marker-small-green" width="22" height="28" x="206" viewBox="-2 -2 22 28"><g fill="none"><path fill="#FFF" d="M9 .934c4.695 0 8.5 3.839 8.5 8.581l-.008.432c-.16 4.399-2.71 8.547-7.633 12.454L9 23.066l-.306-.237-.558-.431C3.054 18.363.5 14.068.5 9.506.5 4.773 4.305.934 9 .934z"/><path fill="#007934" d="M9.243 21.746c4.707-3.736 7.102-7.632 7.25-11.694l.007-.414c0-4.183-3.359-7.572-7.5-7.572s-7.5 3.39-7.5 7.572c0 4.22 2.395 8.248 7.252 12.104l.248.192.243-.188z"/><path fill="#FFF" d="M9 5.5a4 4 0 100 8 4 4 0 000-8zm0 1a3 3 0 110 6 3 3 0 010-6z"/></g></svg><svg xmlns="http://www.w3.org/2000/svg" id="networks-fb-black" width="16" height="25" x="206" y="28" viewBox="-2 -2 16 25"><path fill="#1D2228" d="M3.45 7.2H.9v3.3h2.55v9.9H7.7v-9.9h3.096l.304-3.3H7.7V5.825c0-.788.163-1.1.948-1.1H11.1V.6H7.863C4.807.6 3.45 1.906 3.45 4.407V7.2z"/></svg><svg xmlns="http://www.w3.org/2000/svg" id="networks-fb-white" width="16" height="25" x="206" y="53" viewBox="-2 -2 16 25"><path fill="#FFF" d="M3.45 7.2H.9v3.3h2.55v9.9H7.7v-9.9h3.096l.304-3.3H7.7V5.825c0-.788.163-1.1.948-1.1H11.1V.6H7.863C4.807.6 3.45 1.906 3.45 4.407V7.2z"/></svg><svg xmlns="http://www.w3.org/2000/svg" id="networks-ig-black" width="24" height="24" x="254" viewBox="-2 -2 24 24"><path fill="#1D2228" d="M10 2.223c2.61 0 2.92.01 3.95.055 2.65.117 3.887 1.337 4.008 3.889.047 1 .056 1.3.056 3.834s-.01 2.833-.056 3.834c-.122 2.55-1.356 3.772-4.007 3.889-1.032.045-1.34.055-3.951.055-2.61 0-2.92-.01-3.95-.055-2.655-.118-3.886-1.344-4.007-3.89-.047-1-.057-1.3-.057-3.834 0-2.533.01-2.833.057-3.834C2.165 3.615 3.4 2.394 6.05 2.277c1.031-.045 1.34-.054 3.95-.054zm0-1.71c-2.655 0-2.987.01-4.03.056C2.42.728.447 2.64.284 6.088.236 7.101.225 7.423.225 10s.011 2.9.059 3.912c.163 3.446 2.132 5.36 5.685 5.519 1.044.045 1.376.056 4.031.056s2.988-.01 4.03-.056c3.547-.159 5.525-2.07 5.686-5.519.048-1.012.059-1.335.059-3.912s-.011-2.9-.059-3.911c-.16-3.443-2.131-5.36-5.685-5.519C12.988.524 12.655.513 10 .513zm0 4.615C7.228 5.128 4.98 7.31 4.98 10s2.248 4.873 5.02 4.873c2.772 0 5.02-2.182 5.02-4.873 0-2.69-2.248-4.872-5.02-4.872zm0 8.034c-1.8 0-3.258-1.415-3.258-3.162C6.742 8.254 8.2 6.838 10 6.838S13.258 8.254 13.258 10c0 1.747-1.459 3.162-3.258 3.162zm5.218-9.364c-.648 0-1.174.51-1.174 1.138 0 .629.526 1.139 1.174 1.139.648 0 1.172-.51 1.172-1.139 0-.628-.524-1.138-1.172-1.138z"/></svg><svg xmlns="http://www.w3.org/2000/svg" id="networks-ig-white" width="24" height="24" x="254" y="24" viewBox="-2 -2 24 24"><path fill="#FFF" d="M10 2.223c2.61 0 2.92.01 3.95.055 2.65.117 3.887 1.337 4.008 3.889.047 1 .056 1.3.056 3.834s-.01 2.833-.056 3.834c-.122 2.55-1.356 3.772-4.007 3.889-1.032.045-1.34.055-3.951.055-2.61 0-2.92-.01-3.95-.055-2.655-.118-3.886-1.344-4.007-3.89-.047-1-.057-1.3-.057-3.834 0-2.533.01-2.833.057-3.834C2.165 3.615 3.4 2.394 6.05 2.277c1.031-.045 1.34-.054 3.95-.054zm0-1.71c-2.655 0-2.987.01-4.03.056C2.42.728.447 2.64.284 6.088.236 7.101.225 7.423.225 10s.011 2.9.059 3.912c.163 3.446 2.132 5.36 5.685 5.519 1.044.045 1.376.056 4.031.056s2.988-.01 4.03-.056c3.547-.159 5.525-2.07 5.686-5.519.048-1.012.059-1.335.059-3.912s-.011-2.9-.059-3.911c-.16-3.443-2.131-5.36-5.685-5.519C12.988.524 12.655.513 10 .513zm0 4.615C7.228 5.128 4.98 7.31 4.98 10s2.248 4.873 5.02 4.873c2.772 0 5.02-2.182 5.02-4.873 0-2.69-2.248-4.872-5.02-4.872zm0 8.034c-1.8 0-3.258-1.415-3.258-3.162C6.742 8.254 8.2 6.838 10 6.838S13.258 8.254 13.258 10c0 1.747-1.459 3.162-3.258 3.162zm5.218-9.364c-.648 0-1.174.51-1.174 1.138 0 .629.526 1.139 1.174 1.139.648 0 1.172-.51 1.172-1.139 0-.628-.524-1.138-1.172-1.138z"/></svg><svg xmlns="http://www.w3.org/2000/svg" id="networks-vk-black" width="28" height="18" x="165" y="78" viewBox="-2 -2 28 18"><path fill="#1D2228" d="M13.07 13.182c.56 0 .79-.359.783-.809-.028-1.694.658-2.606 1.896-1.418 1.37 1.316 1.654 2.227 3.318 2.227h2.946c.744 0 1.037-.23 1.037-.59 0-.763-1.308-2.11-2.417-3.098-1.553-1.383-1.625-1.416-.288-3.081 1.658-2.067 3.827-4.717 1.909-4.717h-3.666c-.711 0-.763.385-1.016.958-.916 2.074-2.657 4.761-3.318 4.35-.692-.428-.375-2.126-.323-4.65.014-.666.01-1.123-1.05-1.36a7.728 7.728 0 00-1.666-.181c-2.093 0-3.537.842-2.716.989 1.446.259 1.307 3.263.97 4.56-.587 2.26-2.795-1.788-3.715-3.805-.222-.484-.29-.86-1.082-.86H1.675c-.453 0-.725.14-.725.456 0 .532 2.726 5.94 5.328 8.635 2.537 2.63 5.046 2.394 6.792 2.394z"/></svg><svg xmlns="http://www.w3.org/2000/svg" id="networks-vk-white" width="28" height="18" x="94" y="150" viewBox="-2 -2 28 18"><path fill="#FFF" d="M13.07 13.182c.56 0 .79-.359.783-.809-.028-1.694.658-2.606 1.896-1.418 1.37 1.316 1.654 2.227 3.318 2.227h2.946c.744 0 1.037-.23 1.037-.59 0-.763-1.308-2.11-2.417-3.098-1.553-1.383-1.625-1.416-.288-3.081 1.658-2.067 3.827-4.717 1.909-4.717h-3.666c-.711 0-.763.385-1.016.958-.916 2.074-2.657 4.761-3.318 4.35-.692-.428-.375-2.126-.323-4.65.014-.666.01-1.123-1.05-1.36a7.728 7.728 0 00-1.666-.181c-2.093 0-3.537.842-2.716.989 1.446.259 1.307 3.263.97 4.56-.587 2.26-2.795-1.788-3.715-3.805-.222-.484-.29-.86-1.082-.86H1.675c-.453 0-.725.14-.725.456 0 .532 2.726 5.94 5.328 8.635 2.537 2.63 5.046 2.394 6.792 2.394z"/></svg><svg xmlns="http://www.w3.org/2000/svg" id="networks-yt-black" width="30" height="22" x="34" y="150" viewBox="-2 -2 30 22"><path fill="#1D2228" fill-rule="evenodd" d="M10.443 12.769V5.23L16.977 9l-6.534 3.769zM24.977 2.86a3.164 3.164 0 00-2.21-2.256C20.817.071 13 .071 13 .071s-7.818 0-9.768.533a3.164 3.164 0 00-2.21 2.256C.5 4.85.5 9 .5 9s0 4.151.522 6.14a3.164 3.164 0 002.21 2.255c1.95.534 9.768.534 9.768.534s7.817 0 9.767-.534a3.164 3.164 0 002.21-2.255C25.5 13.15 25.5 9 25.5 9s0-4.151-.523-6.14z"/></svg><svg xmlns="http://www.w3.org/2000/svg" id="networks-yt-white" width="30" height="22" x="64" y="150" viewBox="-2 -2 30 22"><path fill="#FEFEFE" fill-rule="evenodd" d="M10.443 12.769V5.23L16.977 9l-6.534 3.769zM24.977 2.86a3.164 3.164 0 00-2.21-2.256C20.817.071 13 .071 13 .071s-7.818 0-9.768.533a3.164 3.164 0 00-2.21 2.256C.5 4.85.5 9 .5 9s0 4.151.522 6.14a3.164 3.164 0 002.21 2.255c1.95.534 9.768.534 9.768.534s7.817 0 9.767-.534a3.164 3.164 0 002.21-2.255C25.5 13.15 25.5 9 25.5 9s0-4.151-.523-6.14z"/></svg></svg>